<svg id="Layer_1" data-name="Layer 1" xmlns="http://www.w3.org/2000/svg" viewBox="0 0 495.74 146.36"><defs><style>.cls-1{fill:#662d91;}</style></defs><title>RokuLogo5</title><path class="cls-1" d="M157.28,425.69H113.7l-34.63-48H67.42v47.92H29v-144h55c31.72,0,57.63,21.58,57.63,48.12,0,16.2-9.93,30.67-25,39.51l40.64,56.47m-54-96a24.08,24.08,0,0,0-24-24.18H67.42v48.16H79.3A24.06,24.06,0,0,0,103.26,329.71Z" transform="translate(-29.02 -281.59)"/><path class="cls-1" d="M259.73,369.22a59,59,0,1,1-59.13-58.73,58.85,58.85,0,0,1,59.13,58.73M200.6,338.35c-10.18,0-18.78,13.83-18.78,30.87s8.6,30.85,18.78,30.85c10.37,0,19-13.8,19-30.85S211,338.35,200.6,338.35Z" transform="translate(-29.02 -281.59)"/><path class="cls-1" d="M349.88,312.88l-44.25,44.27V312.76H267.2V425.57h38.43V379.8l46.21,45.77h48.32l-58.7-58.73,48.64-48.62v67c0,22.25,13.34,42.74,47,42.74,16,0,30.63-9.07,37.75-17.26l17.29,14.89h8.18V312.88H462v73c-4.33,7.55-10.37,12.31-19.67,12.31-9.47,0-13.8-5.62-13.8-23.53V312.88Z" transform="translate(-29.02 -281.59)"/><path class="cls-1" d="M517.17,326.28a7.59,7.59,0,1,1,7.59-7.59A7.59,7.59,0,0,1,517.17,326.28Zm0-14.43a6.84,6.84,0,1,0,6.84,6.84A6.85,6.85,0,0,0,517.17,311.85Z" transform="translate(-29.02 -281.59)"/><path class="cls-1" d="M513.9,314.84h3.43a3.06,3.06,0,0,1,2.22.77,2.32,2.32,0,0,1,.64,1.66v0a2.3,2.3,0,0,1-1.83,2.33l2.08,2.92h-1.6l-1.9-2.69h-1.69v2.69H513.9Zm3.33,3.82c1,0,1.58-.51,1.58-1.29v0c0-.83-.59-1.28-1.59-1.28h-2v2.59Z" transform="translate(-29.02 -281.59)"/></svg>